<svg width="74" height="72" viewBox="0 0 74 72" fill="none" xmlns="http://www.w3.org/2000/svg">
<ellipse cx="37" cy="36" rx="37" ry="36" fill="white"/>
<path d="M54 11H22V21H54" stroke="#2F9F48" stroke-width="2"/>
<path d="M26.9976 16.479L49.8694 16.1711M26.996 14.3216L49.8677 14.0137M26.9993 18.6364L49.8711 18.3284" stroke="black"/>
<path d="M17 24H57V35H17" stroke="#76C3DB" stroke-width="2"/>
<path d="M17 24H57V35H17" stroke="black" stroke-opacity="0.2" stroke-width="2"/>
<path d="M52.5401 29.5788L22.4253 29.2208M52.5414 27.221L22.4266 26.863M52.5389 31.9367L22.424 31.5787" stroke="black"/>
<path d="M63 38H13V51H63" stroke="#A93232" stroke-width="2"/>
<path d="M18.7702 44.6618L58.3869 44.2281M18.7697 41.9816L58.3864 41.548M18.7707 47.3419L58.3874 46.9083" stroke="black"/>
<path d="M22.11 55.02C22.6767 55.02 23.1267 55.0733 23.46 55.18C23.7933 55.28 24.0333 55.46 24.18 55.72C24.3333 55.98 24.41 56.3467 24.41 56.82C24.41 57.3133 24.3167 57.69 24.13 57.95C23.95 58.21 23.6533 58.36 23.24 58.4V58.44C23.7533 58.4867 24.11 58.6667 24.31 58.98C24.5167 59.2933 24.62 59.7267 24.62 60.28C24.62 60.7533 24.5467 61.12 24.4 61.38C24.2533 61.64 24.0167 61.8233 23.69 61.93C23.37 62.03 22.9467 62.08 22.42 62.08C22.0267 62.08 21.6867 62.0767 21.4 62.07C21.12 62.07 20.86 62.0633 20.62 62.05C20.38 62.0367 20.13 62.02 19.87 62L20.01 61.3C20.1567 61.3067 20.4333 61.3133 20.84 61.32C21.2533 61.3267 21.7333 61.33 22.28 61.33C22.6467 61.33 22.9333 61.3 23.14 61.24C23.3533 61.1733 23.5033 61.0533 23.59 60.88C23.6833 60.7067 23.73 60.4567 23.73 60.13C23.73 59.77 23.6833 59.4933 23.59 59.3C23.4967 59.1067 23.34 58.97 23.12 58.89C22.9 58.81 22.6 58.7667 22.22 58.76H20V58.09H22.21C22.5433 58.0833 22.8067 58.05 23 57.99C23.2 57.9233 23.3433 57.8067 23.43 57.64C23.5167 57.4667 23.56 57.2267 23.56 56.92C23.56 56.6067 23.5133 56.3667 23.42 56.2C23.3267 56.0333 23.17 55.92 22.95 55.86C22.7367 55.8 22.4433 55.77 22.07 55.77C21.7433 55.77 21.45 55.77 21.19 55.77C20.93 55.77 20.7 55.7733 20.5 55.78C20.3067 55.78 20.1433 55.7867 20.01 55.8L19.87 55.1C20.1033 55.0733 20.3233 55.0567 20.53 55.05C20.7433 55.0367 20.9733 55.03 21.22 55.03C21.4733 55.0233 21.77 55.02 22.11 55.02ZM20.73 55.1V62H19.87V55.1H20.73ZM28.5412 54.97C29.0412 54.97 29.4645 55.03 29.8112 55.15C30.1645 55.27 30.4445 55.47 30.6512 55.75C30.8645 56.0233 31.0178 56.39 31.1112 56.85C31.2112 57.31 31.2612 57.8767 31.2612 58.55C31.2612 59.2233 31.2112 59.79 31.1112 60.25C31.0178 60.71 30.8645 61.08 30.6512 61.36C30.4445 61.6333 30.1645 61.83 29.8112 61.95C29.4645 62.07 29.0412 62.13 28.5412 62.13C28.0412 62.13 27.6145 62.07 27.2612 61.95C26.9145 61.83 26.6345 61.6333 26.4212 61.36C26.2078 61.08 26.0512 60.71 25.9512 60.25C25.8578 59.79 25.8112 59.2233 25.8112 58.55C25.8112 57.8767 25.8578 57.31 25.9512 56.85C26.0512 56.39 26.2078 56.0233 26.4212 55.75C26.6345 55.47 26.9145 55.27 27.2612 55.15C27.6145 55.03 28.0412 54.97 28.5412 54.97ZM28.5412 55.76C28.0878 55.76 27.7278 55.8467 27.4612 56.02C27.2012 56.1933 27.0145 56.4833 26.9012 56.89C26.7945 57.29 26.7412 57.8433 26.7412 58.55C26.7412 59.25 26.7945 59.8033 26.9012 60.21C27.0145 60.6167 27.2012 60.9067 27.4612 61.08C27.7278 61.2533 28.0878 61.34 28.5412 61.34C28.9945 61.34 29.3512 61.2533 29.6112 61.08C29.8778 60.9067 30.0645 60.6167 30.1712 60.21C30.2845 59.8033 30.3412 59.25 30.3412 58.55C30.3412 57.8433 30.2845 57.29 30.1712 56.89C30.0645 56.4833 29.8778 56.1933 29.6112 56.02C29.3512 55.8467 28.9945 55.76 28.5412 55.76ZM35.2209 54.97C35.7209 54.97 36.1442 55.03 36.4909 55.15C36.8442 55.27 37.1242 55.47 37.3309 55.75C37.5442 56.0233 37.6975 56.39 37.7909 56.85C37.8909 57.31 37.9409 57.8767 37.9409 58.55C37.9409 59.2233 37.8909 59.79 37.7909 60.25C37.6975 60.71 37.5442 61.08 37.3309 61.36C37.1242 61.6333 36.8442 61.83 36.4909 61.95C36.1442 62.07 35.7209 62.13 35.2209 62.13C34.7209 62.13 34.2942 62.07 33.9409 61.95C33.5942 61.83 33.3142 61.6333 33.1009 61.36C32.8875 61.08 32.7309 60.71 32.6309 60.25C32.5375 59.79 32.4909 59.2233 32.4909 58.55C32.4909 57.8767 32.5375 57.31 32.6309 56.85C32.7309 56.39 32.8875 56.0233 33.1009 55.75C33.3142 55.47 33.5942 55.27 33.9409 55.15C34.2942 55.03 34.7209 54.97 35.2209 54.97ZM35.2209 55.76C34.7675 55.76 34.4075 55.8467 34.1409 56.02C33.8809 56.1933 33.6942 56.4833 33.5809 56.89C33.4742 57.29 33.4209 57.8433 33.4209 58.55C33.4209 59.25 33.4742 59.8033 33.5809 60.21C33.6942 60.6167 33.8809 60.9067 34.1409 61.08C34.4075 61.2533 34.7675 61.34 35.2209 61.34C35.6742 61.34 36.0309 61.2533 36.2909 61.08C36.5575 60.9067 36.7442 60.6167 36.8509 60.21C36.9642 59.8033 37.0209 59.25 37.0209 58.55C37.0209 57.8433 36.9642 57.29 36.8509 56.89C36.7442 56.4833 36.5575 56.1933 36.2909 56.02C36.0309 55.8467 35.6742 55.76 35.2209 55.76ZM44.1405 55.1L42.1305 57.96C42.0705 58.0467 42.0105 58.1233 41.9505 58.19C41.8972 58.25 41.8305 58.32 41.7505 58.4V58.42C41.8372 58.5 41.9172 58.58 41.9905 58.66C42.0639 58.74 42.1272 58.82 42.1805 58.9L44.2805 62H43.2905L40.8405 58.39L43.1805 55.1H44.1405ZM40.3005 55.1V57.26C40.3005 57.46 40.2905 57.65 40.2705 57.83C40.2505 58.01 40.2205 58.1967 40.1805 58.39C40.2139 58.5767 40.2405 58.7633 40.2605 58.95C40.2872 59.1367 40.3005 59.3167 40.3005 59.49V62H39.4305V55.1H40.3005ZM41.3205 58.05V58.76H39.9905V58.05H41.3205ZM46.1888 55.1V60.6C46.1888 60.8267 46.2421 60.9933 46.3488 61.1C46.4621 61.2067 46.6321 61.26 46.8588 61.26H49.3488L49.3888 61.94C48.9554 61.9733 48.5121 61.9933 48.0588 62C47.6121 62.0067 47.1654 62.01 46.7188 62.01C46.2121 62.01 45.8521 61.8867 45.6388 61.64C45.4254 61.3933 45.3188 61.0833 45.3188 60.71V55.1H46.1888ZM51.3555 55.1V62H50.4755V55.1H51.3555ZM55.3327 55.02C55.8993 55.02 56.3493 55.0733 56.6827 55.18C57.016 55.28 57.256 55.46 57.4027 55.72C57.556 55.98 57.6327 56.3467 57.6327 56.82C57.6327 57.3133 57.5393 57.69 57.3527 57.95C57.1727 58.21 56.876 58.36 56.4627 58.4V58.44C56.976 58.4867 57.3327 58.6667 57.5327 58.98C57.7393 59.2933 57.8427 59.7267 57.8427 60.28C57.8427 60.7533 57.7693 61.12 57.6227 61.38C57.476 61.64 57.2393 61.8233 56.9127 61.93C56.5927 62.03 56.1693 62.08 55.6427 62.08C55.2493 62.08 54.9093 62.0767 54.6227 62.07C54.3427 62.07 54.0827 62.0633 53.8427 62.05C53.6027 62.0367 53.3527 62.02 53.0927 62L53.2327 61.3C53.3793 61.3067 53.656 61.3133 54.0627 61.32C54.476 61.3267 54.956 61.33 55.5027 61.33C55.8693 61.33 56.156 61.3 56.3627 61.24C56.576 61.1733 56.726 61.0533 56.8127 60.88C56.906 60.7067 56.9527 60.4567 56.9527 60.13C56.9527 59.77 56.906 59.4933 56.8127 59.3C56.7193 59.1067 56.5627 58.97 56.3427 58.89C56.1227 58.81 55.8227 58.7667 55.4427 58.76H53.2227V58.09H55.4327C55.766 58.0833 56.0293 58.05 56.2227 57.99C56.4227 57.9233 56.566 57.8067 56.6527 57.64C56.7393 57.4667 56.7827 57.2267 56.7827 56.92C56.7827 56.6067 56.736 56.3667 56.6427 56.2C56.5493 56.0333 56.3927 55.92 56.1727 55.86C55.9593 55.8 55.666 55.77 55.2927 55.77C54.966 55.77 54.6727 55.77 54.4127 55.77C54.1527 55.77 53.9227 55.7733 53.7227 55.78C53.5293 55.78 53.366 55.7867 53.2327 55.8L53.0927 55.1C53.326 55.0733 53.546 55.0567 53.7527 55.05C53.966 55.0367 54.196 55.03 54.4427 55.03C54.696 55.0233 54.9927 55.02 55.3327 55.02ZM53.9527 55.1V62H53.0927V55.1H53.9527Z" fill="black"/>
</svg>
